<?xml version="1.0" standalone="no"?>
<!DOCTYPE svg PUBLIC "-//W3C//DTD SVG 20010904//EN"
 "http://www.w3.org/TR/2001/REC-SVG-20010904/DTD/svg10.dtd">
<svg version="1.0" xmlns="http://www.w3.org/2000/svg"
 width="512.000000pt" height="512.000000pt" viewBox="0 0 512.000000 512.000000"
 preserveAspectRatio="xMidYMid meet">

<g transform="translate(0.000000,512.000000) scale(0.100000,-0.100000)"
fill="#000000" stroke="none">
<path d="M3735 4453 c-289 -12 -641 -49 -1172 -122 -646 -90 -879 -115 -1167
-127 -188 -8 -219 -18 -234 -76 -8 -32 -10 -33 -63 -36 -30 -1 -85 1 -123 5
-68 8 -70 9 -78 40 -19 73 -106 97 -159 44 -16 -16 -29 -37 -29 -45 0 -19 -47
-20 -165 -3 -79 12 -79 12 -86 46 -13 62 -41 78 -204 116 -82 19 -158 35 -168
35 -11 0 -34 -15 -53 -34 l-34 -34 0 -1699 c0 -1519 2 -1701 16 -1721 22 -31
43 -41 155 -68 369 -89 793 -126 1221 -105 350 17 568 40 1243 135 314 44 551
73 810 98 80 8 277 13 510 13 429 0 542 -10 845 -72 231 -47 226 -46 255 -39
14 4 34 21 45 39 20 31 20 60 20 1722 0 1658 0 1691 -20 1722 -20 34 -26 36
-180 72 -334 77 -765 112 -1185 94z m-455 -1798 l0 -1564 -32 -5 c-18 -3 -94
-12 -168 -21 -74 -9 -310 -40 -525 -70 -214 -30 -448 -61 -520 -70 -71 -8
-145 -17 -162 -20 l-33 -6 0 1568 0 1568 153 18 c83 10 346 45 582 77 557 77
633 87 673 89 l32 1 0 -1565z"/>
</g>
</svg>
